<svg xmlns="http://www.w3.org/2000/svg" width="38.297" height="30.478" viewBox="0 0 38.297 30.478"><defs><style>.a{fill:#36c4ce;}</style></defs><g transform="translate(0.001 -46.994)"><g transform="translate(-0.001 46.994)"><path class="a" d="M79.381,120.939,65.722,132.2a.323.323,0,0,1-.012.071.325.325,0,0,0-.012.071v11.4a1.543,1.543,0,0,0,1.52,1.521H76.34v-9.122h6.082v9.122h9.121a1.544,1.544,0,0,0,1.521-1.521v-11.4a.334.334,0,0,0-.024-.142Z" transform="translate(-60.232 -114.787)"/><path class="a" d="M38.033,61.841l-5.2-4.323V47.826a.732.732,0,0,0-.76-.76H27.51a.731.731,0,0,0-.76.76v4.632l-5.8-4.846a2.947,2.947,0,0,0-3.61,0L.263,61.841A.69.69,0,0,0,0,62.351a.769.769,0,0,0,.166.559l1.473,1.758a.81.81,0,0,0,.5.261.883.883,0,0,0,.57-.166L19.148,51.056,35.586,64.763a.732.732,0,0,0,.5.166h.071a.811.811,0,0,0,.5-.261l1.473-1.758a.769.769,0,0,0,.166-.559A.692.692,0,0,0,38.033,61.841Z" transform="translate(0.001 -46.994)"/></g></g></svg>