<svg xmlns="http://www.w3.org/2000/svg" width="40" height="40" viewBox="0 0 40 40"><defs><style>.a{fill:#36c4ce;}</style></defs><g transform="translate(282 3.998)"><path class="a" d="M20,0A20,20,0,1,0,40,20,20,20,0,0,0,20,0Zm-3,31.92a1.147,1.147,0,0,1-1.617,0l-.358-.358h0l-.39-.387L12.959,29.5l-.026-.038L5.257,21.73a1.138,1.138,0,0,1,0-1.613L7.676,17.7a1.137,1.137,0,0,1,1.614,0L16.2,24.654,30.709,10.136a1.138,1.138,0,0,1,1.611,0l2.419,2.422a1.139,1.139,0,0,1,0,1.614Z" transform="translate(-282 -4)"/></g></svg>